<mxfile host="app.diagrams.net" modified="2024-06-22T11:12:36.736Z" agent="Mozilla/5.0 (X11; Linux x86_64) AppleWebKit/537.36 (KHTML, like Gecko) Chrome/125.0.0.0 Safari/537.36" etag="rGKVH4tJiFw8oTFSzxmo" version="24.5.5" type="github">
  <diagram name="Page-1" id="e7e014a7-5840-1c2e-5031-d8a46d1fe8dd">
    <mxGraphModel dx="1354" dy="680" grid="1" gridSize="10" guides="1" tooltips="1" connect="1" arrows="1" fold="1" page="1" pageScale="1" pageWidth="1169" pageHeight="826" background="none" math="0" shadow="0">
      <root>
        <mxCell id="0" />
        <mxCell id="1" parent="0" />
        <mxCell id="C72brB4j45OvjQnRRJuR-45" value="" style="group" vertex="1" connectable="0" parent="1">
          <mxGeometry x="140" y="18" width="1540.0099999999998" height="790" as="geometry" />
        </mxCell>
        <mxCell id="C72brB4j45OvjQnRRJuR-41" value="" style="group" vertex="1" connectable="0" parent="C72brB4j45OvjQnRRJuR-45">
          <mxGeometry width="770" height="790" as="geometry" />
        </mxCell>
        <mxCell id="2" value="Thread 1" style="swimlane;whiteSpace=wrap" parent="C72brB4j45OvjQnRRJuR-41" vertex="1">
          <mxGeometry width="256.66666666666663" height="790" as="geometry" />
        </mxCell>
        <mxCell id="3" value="Thread 2" style="swimlane;whiteSpace=wrap" parent="C72brB4j45OvjQnRRJuR-41" vertex="1">
          <mxGeometry x="256.66666666666663" width="256.66666666666663" height="790" as="geometry" />
        </mxCell>
        <mxCell id="4" value="Thread 3" style="swimlane;whiteSpace=wrap" parent="C72brB4j45OvjQnRRJuR-41" vertex="1">
          <mxGeometry x="513.3333333333333" width="256.66666666666663" height="790" as="geometry" />
        </mxCell>
        <mxCell id="C72brB4j45OvjQnRRJuR-42" value="Thread 3" style="swimlane;whiteSpace=wrap" vertex="1" parent="C72brB4j45OvjQnRRJuR-45">
          <mxGeometry x="770.0033333333332" width="256.66666666666663" height="790" as="geometry" />
        </mxCell>
        <mxCell id="C72brB4j45OvjQnRRJuR-43" value="Thread 3" style="swimlane;whiteSpace=wrap" vertex="1" parent="C72brB4j45OvjQnRRJuR-45">
          <mxGeometry x="1026.6733333333334" width="256.66666666666663" height="790" as="geometry" />
        </mxCell>
        <mxCell id="C72brB4j45OvjQnRRJuR-44" value="Thread 3" style="swimlane;whiteSpace=wrap" vertex="1" parent="C72brB4j45OvjQnRRJuR-45">
          <mxGeometry x="1283.3433333333332" width="256.66666666666663" height="790" as="geometry" />
        </mxCell>
      </root>
    </mxGraphModel>
  </diagram>
</mxfile>
